<?xml version="1.0" encoding="utf-8"?>
<!-- Generator: Adobe Illustrator 18.1.1, SVG Export Plug-In . SVG Version: 6.00 Build 0)  -->
<svg version="1.1" id="Layer_1" xmlns="http://www.w3.org/2000/svg" xmlns:xlink="http://www.w3.org/1999/xlink" x="0px" y="0px"
	 viewBox="48 252.3 50 50" enable-background="new 48 252.3 50 50" xml:space="preserve">
<circle fill="#562D2F" cx="73" cy="277.3" r="25"/>
<g>
	<path fill="#FFFFFF" d="M69.8,276.2c0,0,3.1-0.2,3.1-3.8c0-3.6-2.5-5.4-5.7-5.4h-5.9h-0.2h-4.4v20.1h4.4h0.2h5.9
		c0,0,6.4,0.2,6.4-5.9C73.6,281.2,73.9,276.2,69.8,276.2z M61.4,270.6h5.1h0.8c0,0,1.4,0,1.4,2.1c0,2.1-0.8,2.4-1.8,2.4h-5.5
		L61.4,270.6L61.4,270.6z M66.9,283.6c-0.2,0-0.3,0-0.4,0h-5.2v-5.4h5.9c0,0,2.1,0,2.1,2.8C69.3,283.3,67.7,283.6,66.9,283.6z"/>
	<path fill="#FFFFFF" d="M82.1,272.1c-7.7,0-7.7,7.7-7.7,7.7s-0.5,7.7,7.7,7.7c0,0,6.9,0.4,6.9-5.4h-3.5c0,0,0.1,2.2-3.2,2.2
		c0,0-3.5,0.2-3.5-3.5h10.4C89.1,280.9,90.3,272.1,82.1,272.1z M78.7,278.2c0,0,0.4-3.1,3.5-3.1c3.1,0,3.1,3.1,3.1,3.1H78.7z"/>
	<rect x="77.8" y="268.2" fill="#FFFFFF" width="8.3" height="2.5"/>
</g>
</svg>
