<?xml version="1.0" encoding="utf-8"?>
<!-- Generator: Adobe Illustrator 18.1.1, SVG Export Plug-In . SVG Version: 6.00 Build 0)  -->
<svg version="1.1" id="Capa_1" xmlns="http://www.w3.org/2000/svg" xmlns:xlink="http://www.w3.org/1999/xlink" x="0px" y="0px"
	 viewBox="912.1 373.5 50 50" enable-background="new 912.1 373.5 50 50" xml:space="preserve">
<circle fill="#562D2F" cx="937.1" cy="398.5" r="25"/>
<g>
	<path id="LinkedIn" fill="#FFFFFF" d="M951.4,399.7v10.2h-5.9v-9.5c0-2.4-0.9-4-3-4c-1.6,0-2.6,1.1-3,2.2c-0.2,0.4-0.2,0.9-0.2,1.4
		v9.9h-5.9c0,0,0.1-16.1,0-17.7h5.9v2.5c0,0,0,0,0,0.1h0v-0.1c0.8-1.2,2.2-2.9,5.3-2.9C948.5,391.7,951.4,394.2,951.4,399.7z
		 M927.2,383.6c-2,0-3.3,1.3-3.3,3.1c0,1.7,1.3,3.1,3.3,3.1h0c2.1,0,3.3-1.4,3.3-3.1C930.5,384.9,929.3,383.6,927.2,383.6z
		 M924.3,409.8h5.9v-17.7h-5.9V409.8z"/>
</g>
</svg>
