<?xml version="1.0" encoding="utf-8"?>
<!-- Generator: Adobe Illustrator 18.1.1, SVG Export Plug-In . SVG Version: 6.00 Build 0)  -->
<svg version="1.1" id="Layer_1" xmlns="http://www.w3.org/2000/svg" xmlns:xlink="http://www.w3.org/1999/xlink" x="0px" y="0px"
	 viewBox="514.5 246.5 51 51" enable-background="new 514.5 246.5 51 51" xml:space="preserve">
<circle fill="#562D2F" cx="540" cy="272" r="25"/>
<path fill="#FFFFFF" d="M541.7,281.9c0-0.3,0-0.5-0.1-0.7c-0.1-0.2-0.1-0.5-0.2-0.6c-0.1-0.2-0.2-0.4-0.3-0.6
	c-0.2-0.2-0.3-0.4-0.4-0.6c-0.1-0.2-0.3-0.3-0.5-0.6c-0.2-0.2-0.4-0.4-0.5-0.5c-0.1-0.1-0.3-0.3-0.6-0.5c-0.3-0.2-0.5-0.4-0.6-0.4
	c-0.1,0-0.3-0.2-0.6-0.4c-0.3-0.2-0.5-0.4-0.6-0.4c-0.2,0-0.5,0-0.9,0c-0.6,0-1.3,0-1.8,0.1c-0.6,0.1-1.3,0.2-1.9,0.5
	c-0.6,0.2-1.2,0.5-1.8,0.8s-0.9,0.7-1.2,1.3c-0.3,0.6-0.5,1.2-0.5,1.9c0,0.8,0.2,1.6,0.6,2.1c0.5,0.6,1,1.1,1.7,1.5
	c0.6,0.4,1.4,0.6,2.1,0.8c0.7,0.2,1.5,0.3,2.2,0.3s1.4-0.1,2-0.2c0.6-0.2,1.2-0.4,1.8-0.7c0.6-0.3,1-0.7,1.3-1.3
	C541.5,283.3,541.7,282.6,541.7,281.9z M539.6,266.6c0-0.7-0.1-1.5-0.3-2.3s-0.5-1.6-0.8-2.3s-0.8-1.4-1.5-1.8
	c-0.6-0.5-1.4-0.7-2.1-0.7c-1.1,0-1.9,0.4-2.6,1.2c-0.6,0.8-0.9,1.8-0.9,3c0,0.6,0.1,1.1,0.2,1.8c0.1,0.6,0.4,1.2,0.6,1.8
	c0.3,0.6,0.6,1.2,1,1.7s0.8,0.9,1.4,1.2s1.1,0.5,1.8,0.5c1.1,0,1.9-0.4,2.5-1.1C539.3,268.7,539.6,267.8,539.6,266.6z M537.3,258.2
	h7.8l-2.4,1.4h-2.4c0.8,0.6,1.5,1.3,1.9,2.2c0.5,0.9,0.7,1.9,0.7,3c0,0.8-0.1,1.7-0.4,2.3c-0.3,0.6-0.6,1.2-1,1.7
	c-0.4,0.4-0.7,0.8-1.2,1.1c-0.4,0.4-0.7,0.7-1,1.1c-0.3,0.4-0.4,0.7-0.4,1.2c0,0.3,0.1,0.6,0.3,0.9s0.5,0.6,0.7,0.8
	c0.3,0.3,0.6,0.6,1,0.8s0.7,0.6,1.1,1s0.7,0.7,1,1.2c0.3,0.5,0.6,0.9,0.7,1.5s0.3,1.2,0.3,1.8c0,1.9-0.8,3.6-2.5,5
	c-1.8,1.6-4.2,2.3-7.5,2.3c-0.7,0-1.4-0.1-2.1-0.2s-1.5-0.3-2.1-0.6c-0.7-0.3-1.4-0.6-1.9-1s-1-0.9-1.4-1.6c-0.3-0.6-0.5-1.2-0.5-2
	c0-0.7,0.2-1.5,0.6-2.4c0.4-0.7,0.9-1.4,1.7-1.9s1.7-1,2.6-1.3c0.9-0.3,1.8-0.5,2.8-0.6c0.8-0.1,1.8-0.2,2.7-0.3
	c-0.7-1-1.1-1.8-1.1-2.7c0-0.2,0-0.3,0-0.5c0-0.1,0.1-0.3,0.1-0.4s0.1-0.2,0.2-0.4c0.1-0.2,0.1-0.3,0.1-0.4
	c-0.5,0.1-0.9,0.1-1.2,0.1c-1.8,0-3.2-0.6-4.5-1.8s-1.8-2.6-1.8-4.3c0-1.7,0.6-3.1,1.7-4.4c1.1-1.2,2.5-2,4.2-2.4
	C535,258.3,536.1,258.2,537.3,258.2z M555.6,262.7v2.3h-4.5v4.5h-2.3V265h-4.5v-2.3h4.5v-4.5h2.3v4.5H555.6z"/>
</svg>
