<?xml version="1.0" encoding="utf-8"?>
<!-- Generator: Adobe Illustrator 18.1.1, SVG Export Plug-In . SVG Version: 6.00 Build 0)  -->
<svg version="1.1" id="Layer_1" xmlns="http://www.w3.org/2000/svg" xmlns:xlink="http://www.w3.org/1999/xlink" x="0px" y="0px"
	 viewBox="-134.4 317 50 50" enable-background="new -134.4 317 50 50" xml:space="preserve">
<circle fill="#562D2F" cx="-109.4" cy="342" r="25"/>
<path fill="#FFFFFF" d="M-109.5,347.2c2.9,0,5.2-2.3,5.2-5.2c0-1.6-0.7-2.9-1.8-3.9c-0.4-0.3-0.8-0.6-1.3-0.8
	c-0.7-0.3-1.4-0.5-2.1-0.5s-1.5,0.2-2.1,0.5c-0.5,0.2-0.9,0.5-1.3,0.8c-1.1,1-1.8,2.3-1.8,3.9C-114.7,344.9-112.4,347.2-109.5,347.2
	z M-109.5,338.2c2.1,0,3.8,1.7,3.8,3.8s-1.7,3.8-3.8,3.8c-2.1,0-3.8-1.7-3.8-3.8C-113.3,339.9-111.6,338.2-109.5,338.2z
	 M-103.8,338.6h7.5v11.3c0,2.9-2.3,5.2-5.2,5.2h-16c-2.9,0-5.3-2.3-5.3-5.2v-11.3h7.4c-0.6,1-1,2.2-1,3.4c0,3.7,3,6.7,6.7,6.7
	s6.7-3,6.7-6.7C-102.8,340.8-103.2,339.6-103.8,338.6z M-101.5,328.7H-115v5.5h-1.1v-5.5h-1.1v5.5h-1.1v-5.4
	c-0.4,0.1-0.8,0.2-1.1,0.3v5.1h-1.1v-4.5c-1.3,0.9-2.2,2.5-2.2,4.2v3.6h8.2c1.3-1.4,3.1-2.2,5-2.2c1.9,0,3.7,0.8,5,2.2h8.3v-3.6
	C-96.3,331-98.6,328.7-101.5,328.7z M-98.5,334.5c0,0.4-0.4,0.8-0.8,0.8h-2.8c-0.5,0-0.8-0.4-0.8-0.8v-2.8c0-0.4,0.4-0.8,0.8-0.8
	h2.8c0.5,0,0.8,0.4,0.8,0.8C-98.5,331.7-98.5,334.5-98.5,334.5z"/>
</svg>
