<?xml version="1.0" encoding="utf-8"?>
<!-- Generator: Adobe Illustrator 18.1.1, SVG Export Plug-In . SVG Version: 6.00 Build 0)  -->
<svg version="1.1" id="Layer_1" xmlns="http://www.w3.org/2000/svg" xmlns:xlink="http://www.w3.org/1999/xlink" x="0px" y="0px"
	 viewBox="588 267 50 50" enable-background="new 588 267 50 50" xml:space="preserve">
<circle fill="#562D2F" cx="613" cy="292" r="25"/>
<path fill="#FFFFFF" d="M629.9,283.1c-1.2,0.5-2.3,0.9-3.6,1c1.3-0.8,2.3-2,2.8-3.5c-1.2,0.8-2.6,1.2-4,1.5c-1.1-1.2-2.8-2-4.5-2
	c-3.5,0-6.3,2.8-6.3,6.3c0,0.5,0.1,1,0.2,1.4c-5.3-0.3-9.9-2.8-13.1-6.6c-0.6,1-0.9,2-0.9,3.2c0,2.2,1.2,4.1,2.8,5.3
	c-1.1,0-2-0.3-2.9-0.8v0.1c0,3.1,2.2,5.6,5.1,6.1c-0.6,0.1-1.1,0.2-1.6,0.2c-0.4,0-0.8,0-1.2-0.1c0.8,2.5,3.2,4.3,5.9,4.4
	c-2.1,1.7-4.9,2.7-7.9,2.7c-0.5,0-1.1,0-1.5-0.1c2.8,1.8,6.1,2.9,9.7,2.9c11.6,0,17.9-9.6,17.9-17.9c0-0.3,0-0.6,0-0.8
	C628,285.5,629,284.4,629.9,283.1z"/>
</svg>
