<?xml version="1.0" encoding="utf-8"?>
<!-- Generator: Adobe Illustrator 18.1.1, SVG Export Plug-In . SVG Version: 6.00 Build 0)  -->
<svg version="1.1" id="Capa_1" xmlns="http://www.w3.org/2000/svg" xmlns:xlink="http://www.w3.org/1999/xlink" x="0px" y="0px"
	 viewBox="0 137 360 307" enable-background="new 0 137 360 307" xml:space="preserve">
<g>
	<path d="M240.3,186.4c-42.6,42.6-85.1,85.1-127,127c-10.3,10.3-28.8,23.3-35,37.1c-5.5,11.7-6.2,28.1-8.9,41.2
		c-2.7,12.4-5.5,25.4-8.2,37.8c-1.4,6.9,4.1,11.7,10.3,10.3c26.1-5.5,52.2-11.7,77.6-17.2c0.7,0,1.4,0,2.1-0.7
		c2.1-0.7,3.4-2.1,4.1-3.4c33.6-33.6,67.3-67.3,100.9-100.9c19.2-19.2,37.8-37.8,57-57l16.5-15.1c11-10.3,21.3-21.3,26.8-35.7
		c15.8-41.9-21.3-81-64.5-65.9c-13.7,4.8-24.7,15.1-35,26.1L240.3,186.4z M92,365.6c0.7-2.1,0.7-3.4,1.4-5.5l47.4,47.4
		c-20.6,4.1-40.5,8.9-61.1,13C83.8,402.7,87.9,384.1,92,365.6z M153.8,396.5l-49.4-49.4c1.4-1.4,2.7-2.7,3.4-4.1
		c40.5-40.5,81-81,121.5-121.5c9.6-9.6,19.9-19.9,29.5-29.5l49.4,49.4c-0.7,0.7-2.1,2.1-2.7,2.7c-19.9,19.9-39.1,39.1-59,59
		C216.2,334.7,184.7,365.6,153.8,396.5z M339.1,207c-4.1,8.2-10.3,15.8-17.8,22.7l-50.1-50.1c0.7-0.7,2.1-2.1,2.7-2.7
		c6.2-6.2,11.7-11.7,19.9-15.1C325.4,147.3,353.5,175.4,339.1,207z"/>
</g>
</svg>
